<?xml version="1.0" standalone="no"?>
<!DOCTYPE svg PUBLIC "-//W3C//DTD SVG 20010904//EN"
 "http://www.w3.org/TR/2001/REC-SVG-20010904/DTD/svg10.dtd">
<svg version="1.0" xmlns="http://www.w3.org/2000/svg"
 width="512.000000pt" height="512.000000pt" viewBox="0 0 512.000000 512.000000"
 preserveAspectRatio="xMidYMid meet">

<g transform="translate(0.000000,512.000000) scale(0.100000,-0.100000)"
fill="#e50914" stroke="none">
<path d="M3375 4039 c-95 -22 -275 -84 -339 -116 -78 -39 -157 -108 -180 -158
-44 -92 11 -216 116 -259 64 -27 140 -20 267 24 120 42 188 50 236 28 28 -13
105 -114 365 -483 l162 -230 -1448 -3 c-796 -1 -1449 0 -1452 3 -2 2 9 21 25
42 16 21 106 148 200 283 94 135 203 287 243 338 l72 94 45 -7 c25 -3 86 -23
136 -42 82 -32 102 -36 192 -37 94 -1 103 1 155 30 43 25 61 42 83 84 58 111
22 199 -108 262 -59 29 -251 101 -315 119 -68 18 -224 15 -294 -5 -104 -31
-194 -83 -266 -154 -36 -37 -268 -282 -515 -544 -246 -263 -456 -478 -465
-478 -48 0 -118 -37 -172 -90 -98 -98 -95 -74 -94 -815 1 -584 2 -633 19 -670
38 -84 121 -143 232 -165 43 -8 289 -10 870 -8 l810 3 67 32 c115 54 196 143
328 358 132 216 164 248 222 226 40 -15 71 -54 178 -221 120 -189 195 -280
278 -336 102 -70 138 -75 427 -59 98 5 248 2 490 -10 708 -36 994 7 1109 167
41 57 44 112 45 763 1 602 -1 623 -57 715 -32 52 -103 99 -160 107 -39 5 -57
23 -315 302 -373 404 -732 777 -781 813 -123 90 -281 127 -411 97z m-1513
-119 c234 -87 298 -135 298 -223 0 -45 -32 -112 -61 -128 -30 -16 -79 -7 -198
36 -94 34 -112 37 -177 33 -176 -12 -290 -119 -515 -483 -96 -156 -154 -241
-197 -287 l-26 -28 -284 0 -284 0 83 92 c46 50 136 146 199 213 63 66 257 270
429 453 359 379 360 380 499 381 66 1 89 -5 234 -59z m1711 26 c26 -8 64 -27
85 -42 42 -32 212 -207 537 -554 115 -124 243 -261 285 -305 128 -134 180
-192 180 -198 0 -4 -114 -7 -253 -7 l-252 0 -180 253 c-99 138 -210 298 -248
354 -84 126 -116 159 -186 191 -47 22 -62 24 -123 18 -38 -3 -127 -25 -196
-47 -121 -40 -129 -41 -166 -28 -58 20 -81 58 -81 129 0 86 18 105 154 163
193 83 334 106 444 73z m1091 -1157 c156 -11 192 -24 246 -85 67 -77 64 -41
65 -759 0 -647 0 -650 -22 -690 -24 -46 -55 -76 -100 -99 -29 -14 -115 -16
-835 -16 -542 0 -816 4 -843 11 -65 17 -145 111 -260 303 -151 253 -217 316
-330 316 -133 0 -235 -97 -409 -387 -82 -137 -135 -202 -186 -228 -26 -13
-137 -16 -842 -18 -765 -2 -815 -1 -853 16 -55 25 -89 60 -117 121 l-23 51 -3
634 c-2 559 -1 640 13 689 20 67 65 116 122 131 29 8 574 10 1909 7 1028 -2
1876 -4 1884 -6 8 -1 44 3 80 8 90 13 338 14 504 1z"/>
<path d="M1088 2514 c-4 -4 -119 -7 -255 -6 l-248 1 -79 -42 c-76 -39 -80 -43
-110 -106 l-31 -66 1 -365 c0 -320 2 -369 17 -396 22 -42 69 -81 115 -94 56
-17 281 -31 304 -19 12 6 88 8 206 4 539 -16 612 -16 696 6 44 11 96 29 116
39 46 24 95 78 108 122 14 45 23 610 11 693 -18 126 -58 172 -181 207 -66 18
-99 20 -338 18 -146 -1 -279 1 -295 5 -17 4 -33 3 -37 -1z m-308 -62 c0 -10
-219 -137 -225 -130 -6 5 64 121 79 130 15 11 146 10 146 0z m436 -17 c-11 -8
-23 -15 -28 -15 -4 0 -15 -14 -23 -30 l-16 -31 86 46 c78 41 92 45 155 45 39
0 70 -4 70 -9 0 -5 -28 -92 -61 -193 -38 -113 -70 -191 -83 -203 -12 -11 -17
-17 -12 -12 24 18 23 2 -5 -80 -21 -65 -37 -96 -61 -117 -32 -28 -32 -29 -4
-11 21 13 28 14 24 4 -3 -8 -29 -86 -58 -174 -29 -88 -56 -164 -61 -169 -15
-17 -21 1 -9 25 12 22 11 22 -33 -4 -42 -25 -55 -27 -152 -27 -81 0 -105 3
-102 13 3 6 33 95 67 197 39 116 71 192 84 205 12 11 17 17 12 13 -6 -5 -13
-8 -17 -8 -4 0 34 124 84 275 l92 275 35 0 c33 -1 34 -2 16 -15z m-221 -8
c-43 -29 -206 -119 -210 -116 -2 2 29 32 68 66 65 56 76 62 117 63 40 0 43 -1
25 -13z m715 -8 c-24 -16 -96 -52 -88 -44 18 19 75 54 88 54 13 1 13 0 0 -10z
m85 -88 c0 -19 -26 -39 -154 -113 -84 -49 -155 -87 -158 -85 -10 11 50 62 167
142 68 47 129 84 135 82 5 -2 10 -14 10 -26z m-1270 -141 c-18 -19 -31 -26
-34 -19 -2 7 7 20 20 30 38 29 46 22 14 -11z m1295 6 c0 -21 -24 -38 -166
-120 -92 -53 -168 -95 -170 -93 -4 4 324 237 333 237 1 0 3 -11 3 -24z m-1107
-183 c-81 -64 -165 -129 -185 -145 l-38 -30 0 45 0 44 173 101 c94 55 178 101
185 101 8 1 -53 -51 -135 -116z m-193 37 c-14 -10 -27 -16 -30 -13 -6 6 30 33
44 33 6 0 0 -9 -14 -20z m1300 -28 c0 -25 -6 -44 -17 -54 -14 -12 -298 -177
-338 -196 -24 -12 35 40 182 158 87 71 161 129 166 129 4 1 7 -16 7 -37z m-13
-236 c-5 -13 -158 -106 -174 -106 -4 0 33 38 82 84 83 77 90 82 93 59 2 -14 1
-30 -1 -37z m-402 44 c-3 -5 -11 -10 -16 -10 -6 0 -7 5 -4 10 3 6 11 10 16 10
6 0 7 -4 4 -10z m-586 -36 c-7 -9 -81 -63 -163 -120 -149 -104 -165 -110 -166
-63 0 11 59 50 167 112 92 53 169 94 171 92 3 -3 -1 -12 -9 -21z m751 -58 c0
-11 -275 -256 -287 -256 -11 0 -14 7 -9 28 17 72 26 80 160 157 135 77 136 78
136 71z m90 -186 l-52 -70 -81 0 -82 0 130 74 c71 41 132 73 134 71 2 -2 -20
-36 -49 -75z m-913 27 c-8 -12 -40 -40 -71 -61 -55 -38 -58 -39 -88 -25 l-31
15 99 57 c97 55 121 59 91 14z m1054 20 c-10 -9 -11 -8 -5 6 3 10 9 15 12 12
3 -3 0 -11 -7 -18z"/>
<path d="M3315 2467 c-86 -45 -108 -74 -124 -162 -15 -77 -15 -684 0 -737 15
-56 62 -104 127 -129 52 -20 74 -22 242 -21 102 1 204 4 228 8 28 4 51 2 66
-6 18 -9 29 -9 45 -1 15 8 27 9 40 2 13 -7 29 -7 51 0 19 7 58 9 98 5 118 -11
376 -9 438 4 104 22 170 64 205 132 15 30 19 59 19 145 0 59 5 187 11 283 17
258 -4 382 -77 453 -63 63 -31 60 -692 61 l-603 1 -74 -38z m231 -14 c-12 -12
-151 -91 -154 -88 -7 7 51 84 66 88 28 8 96 7 88 0z m238 -13 c12 0 -23 -25
-84 -61 -168 -97 -173 -98 -80 -9 75 72 88 81 114 76 16 -3 38 -6 50 -6z m491
1 c-3 -5 -54 -37 -113 -71 -114 -66 -114 -65 -18 38 37 38 45 42 89 42 27 0
46 -4 42 -9z m265 -14 c18 -13 13 -17 -78 -70 -53 -31 -98 -54 -100 -52 -12
12 27 91 57 116 39 33 80 35 121 6z m80 -104 c0 -13 -51 -47 -163 -111 -89
-51 -155 -86 -147 -78 20 20 293 206 303 206 4 0 7 -8 7 -17z m-1277 -105
c-18 -18 -36 -28 -40 -24 -8 8 45 56 62 56 5 0 -5 -14 -22 -32z m844 -14 c-15
-13 -33 -24 -40 -24 -6 0 4 13 23 29 19 16 37 27 40 24 3 -3 -8 -16 -23 -29z
m453 -13 c0 -14 -31 -37 -112 -84 -62 -36 -131 -75 -153 -88 -22 -12 -37 -19
-33 -15 10 12 282 204 291 205 4 1 7 -8 7 -18z m-1065 -90 c-55 -51 -261 -199
-268 -192 -23 23 5 49 128 122 119 71 165 94 140 70z m1065 -59 c0 -13 -32
-36 -102 -77 -119 -68 -125 -71 -116 -60 13 14 203 154 211 154 4 1 7 -7 7
-17z m-945 -51 c-25 -23 -364 -271 -379 -277 -8 -3 -10 8 -8 34 l4 38 191 112
c191 110 230 129 192 93z m935 -91 c0 -10 -69 -60 -84 -60 -7 0 72 68 82 69 1
1 2 -3 2 -9z m-1020 -140 c-14 -10 -83 -58 -153 -106 -97 -66 -131 -84 -139
-76 -16 16 -14 18 157 116 152 87 180 101 135 66z m210 -13 c0 -8 -92 -69 -97
-64 -3 3 17 19 43 36 50 31 54 33 54 28z m-249 -166 c-7 -11 -39 -39 -72 -62
-45 -30 -67 -39 -85 -35 -13 4 -24 10 -24 14 1 8 183 113 188 107 2 -2 -1 -13
-7 -24z m619 -61 c-25 -22 -56 -40 -69 -40 -13 0 -21 3 -18 7 9 9 120 72 127
72 3 0 -15 -17 -40 -39z m199 -6 c-25 -24 -43 -35 -59 -32 -18 2 -13 8 31 35
69 40 71 40 28 -3z m225 14 c-19 -33 -40 -48 -68 -48 -30 0 -30 1 19 30 58 34
58 34 49 18z m-899 -38 c-3 -5 -12 -10 -18 -10 -7 0 -6 4 3 10 19 12 23 12 15
0z"/>
</g>
</svg>
